<?xml version="1.0" encoding="UTF-8"?>
<svg width="24px" height="24px" viewBox="0 0 24 24" version="1.1" xmlns="http://www.w3.org/2000/svg" xmlns:xlink="http://www.w3.org/1999/xlink">
    <title>Bank</title>
    <g id="Page-1" stroke="none" stroke-width="1" fill="none" fill-rule="evenodd">
        <g id="Bank" fill="#000000">
            <path d="M22.9973333,5.73333333 L12.864,0.4 C12.3981732,0.155329451 11.8418268,0.155329451 11.376,0.4 L1.24266667,5.73333333 C0.594127579,6.07748012 0.263035916,6.81885081 0.439619688,7.53149247 C0.616203461,8.24413412 1.25514151,8.74514347 1.98933333,8.74666667 L22.256,8.74666667 C22.9901918,8.74514347 23.6291299,8.24413412 23.8057136,7.53149247 C23.9822974,6.81885081 23.6512058,6.07748012 23.0026667,5.73333333 L22.9973333,5.73333333 Z M1.984,7.14666667 L12.1173333,1.81333333 L22.2506667,7.14666667 L1.984,7.14666667 Z" id="Shape"></path>
            <path d="M22.2506667,22.08 L1.984,22.08 C1.5421722,22.08 1.184,22.4381722 1.184,22.88 C1.184,23.3218278 1.5421722,23.68 1.984,23.68 L22.2506667,23.68 C22.6924945,23.68 23.0506667,23.3218278 23.0506667,22.88 C23.0506667,22.4381722 22.6924945,22.08 22.2506667,22.08 Z" id="Shape"></path>
            <path d="M22.2506667,11.4133333 C22.6924945,11.4133333 23.0506667,11.0551611 23.0506667,10.6133333 C23.0506667,10.1715055 22.6924945,9.81333333 22.2506667,9.81333333 L1.984,9.81333333 C1.5421722,9.81333333 1.184,10.1715055 1.184,10.6133333 C1.184,11.0551611 1.5421722,11.4133333 1.984,11.4133333 L3.05066667,11.4133333 L3.05066667,19.4133333 L1.984,19.4133333 C1.5421722,19.4133333 1.184,19.7715055 1.184,20.2133333 C1.184,20.6551611 1.5421722,21.0133333 1.984,21.0133333 L22.2506667,21.0133333 C22.6924945,21.0133333 23.0506667,20.6551611 23.0506667,20.2133333 C23.0506667,19.7715055 22.6924945,19.4133333 22.2506667,19.4133333 L20.6506667,19.4133333 L20.6506667,11.4133333 L22.2506667,11.4133333 Z M9.984,11.4133333 L11.0506667,11.4133333 L11.0506667,19.4133333 L9.984,19.4133333 L9.984,11.4133333 Z M8.384,19.4133333 L7.31733333,19.4133333 L7.31733333,11.4133333 L8.384,11.4133333 L8.384,19.4133333 Z M12.6506667,11.4133333 L13.7173333,11.4133333 L13.7173333,19.4133333 L12.6506667,19.4133333 L12.6506667,11.4133333 Z M15.3173333,11.4133333 L16.384,11.4133333 L16.384,19.4133333 L15.3173333,19.4133333 L15.3173333,11.4133333 Z M4.65066667,11.4133333 L5.71733333,11.4133333 L5.71733333,19.4133333 L4.65066667,19.4133333 L4.65066667,11.4133333 Z M19.0506667,19.4133333 L17.984,19.4133333 L17.984,11.4133333 L19.0506667,11.4133333 L19.0506667,19.4133333 Z" id="Shape"></path>
        </g>
    </g>
</svg>
