<?xml version="1.0" encoding="UTF-8"?>
<svg width="24px" height="24px" viewBox="0 0 43 44" version="1.1" xmlns="http://www.w3.org/2000/svg" xmlns:xlink="http://www.w3.org/1999/xlink">
    <!-- Generator: Sketch 61 (89581) - https://sketch.com -->
    <title>Trips</title>
    <desc>Treepr trips</desc>
    <g id="Page-1" stroke="none" stroke-width="1" fill="none" fill-rule="evenodd">
        <g id="Map">
            <path d="M40.83,4.61 L30.83,0.61 C29.9752607,0.273575423 29.0135017,0.34727343 28.22,0.81 C27.4264983,0.34727343 26.4647393,0.273575423 25.61,0.61 L15.61,4.61 C15.4755851,4.66383859 15.3452444,4.7273379 15.22,4.8 C15.0947556,4.7273379 14.9644149,4.66383859 14.83,4.61 L4.83,0.61 C3.90543626,0.241778908 2.85844791,0.356020006 2.03505131,0.914968061 C1.21165471,1.47391612 0.719036225,2.40480959 0.72,3.4 L0.72,36.4 C0.718809856,37.6294115 1.46783687,38.7351181 2.61,39.19 L12.61,43.19 C13.4647393,43.5264246 14.4264983,43.4527266 15.22,42.99 C16.0135017,43.4527266 16.9752607,43.5264246 17.83,43.19 L27.83,39.19 C27.9644149,39.1361614 28.0947556,39.0726621 28.22,39 C28.3452444,39.0726621 28.4755851,39.1361614 28.61,39.19 L38.61,43.19 C39.5345637,43.5582211 40.5815521,43.44398 41.4049487,42.8850319 C42.2283453,42.3260839 42.7209638,41.3951904 42.72,40.4 L42.72,7.4 C42.7211901,6.17058846 41.9721631,5.06488191 40.83,4.61 L40.83,4.61 Z M3.72,36.4 L3.72,3.4 L13.72,7.4 L13.72,40.4 L3.72,36.4 Z M16.72,40.4 L16.72,7.4 L26.72,3.4 L26.72,36.4 L16.72,40.4 Z M39.72,40.4 L29.72,36.4 L29.72,3.4 L39.72,7.4 L39.72,40.4 Z" id="Shape"></path>
        </g>
    </g>
</svg>
