<?xml version="1.0" encoding="UTF-8"?>
<svg width="24px" height="24px" viewBox="0 0 45 45" version="1.1" xmlns="http://www.w3.org/2000/svg" xmlns:xlink="http://www.w3.org/1999/xlink">
    <!-- Generator: Sketch 61 (89581) - https://sketch.com -->
    <title>Explore</title>
    <desc>Treepr explore outdoor</desc>
    <g id="Page-1" stroke="none" stroke-width="1" fill="none" fill-rule="evenodd">
        <g id="Explore">
            <path d="M22.72,0.4 C10.5697355,0.4 0.72,10.2497355 0.72,22.4 C0.72,34.5502645 10.5697355,44.4 22.72,44.4 C34.8702645,44.4 44.72,34.5502645 44.72,22.4 C44.72,10.2497355 34.8702645,0.4 22.72,0.4 Z M22.72,41.4 C12.2265898,41.4 3.72,32.8934102 3.72,22.4 C3.72,11.9065898 12.2265898,3.4 22.72,3.4 C33.2134102,3.4 41.72,11.9065898 41.72,22.4 C41.72,32.8934102 33.2134102,41.4 22.72,41.4 L22.72,41.4 Z" id="Shape"></path>
            <path d="M31.06,11.4 L18.69,18.25 L18.62,18.25 L18.49,18.34 L18.35,18.46 L18.25,18.58 L18.14,18.73 L18.14,18.8 L11.33,31.4 C11.0560469,31.9736129 11.1734035,32.657617 11.6228932,33.1071068 C12.072383,33.5565965 12.7563871,33.6739531 13.33,33.4 L25.7,26.55 L25.77,26.55 L25.9,26.46 L26.04,26.34 L26.14,26.22 L26.25,26.07 L26.25,26 L33,13.37 C33.2739531,12.7963871 33.1565965,12.112383 32.7071068,11.6628932 C32.257617,11.2134035 31.5736129,11.0960469 31,11.37 L31.06,11.4 Z M19.77,22.08 L22.59,24.98 L16.38,28.42 L19.77,22.08 Z M24.68,22.83 L21.86,19.93 L28.07,16.49 L24.68,22.83 Z" id="Shape"></path>
            <path d="M37.72,21.4 L34.72,21.4 C34.1677153,21.4 33.72,21.8477153 33.72,22.4 C33.72,22.9522847 34.1677153,23.4 34.72,23.4 L37.72,23.4 C38.2722847,23.4 38.72,22.9522847 38.72,22.4 C38.72,21.8477153 38.2722847,21.4 37.72,21.4 Z" id="Shape"></path>
            <path d="M11.72,22.4 C11.72,21.8477153 11.2722847,21.4 10.72,21.4 L7.72,21.4 C7.16771525,21.4 6.72,21.8477153 6.72,22.4 C6.72,22.9522847 7.16771525,23.4 7.72,23.4 L10.72,23.4 C11.2722847,23.4 11.72,22.9522847 11.72,22.4 Z" id="Shape"></path>
            <path d="M22.72,33.4 C22.1677153,33.4 21.72,33.8477153 21.72,34.4 L21.72,37.4 C21.72,37.9522847 22.1677153,38.4 22.72,38.4 C23.2722847,38.4 23.72,37.9522847 23.72,37.4 L23.72,34.4 C23.72,33.8477153 23.2722847,33.4 22.72,33.4 Z" id="Shape"></path>
            <path d="M22.72,11.4 C23.2722847,11.4 23.72,10.9522847 23.72,10.4 L23.72,7.4 C23.72,6.84771525 23.2722847,6.4 22.72,6.4 C22.1677153,6.4 21.72,6.84771525 21.72,7.4 L21.72,10.4 C21.72,10.9522847 22.1677153,11.4 22.72,11.4 Z" id="Shape"></path>
        </g>
    </g>
</svg>
