<?xml version="1.0" encoding="UTF-8"?>
<svg width="40px" height="40px" viewBox="0 0 45 40" version="1.1" xmlns="http://www.w3.org/2000/svg" xmlns:xlink="http://www.w3.org/1999/xlink">
    <!-- Generator: Sketch 59 (86127) - https://sketch.com -->
    <title>Telescope</title>
    <desc>Created with Sketch.</desc>
    <g id="Page-1" stroke="none" stroke-width="1" fill="none" fill-rule="evenodd">
        <g id="250-icons-48x48px" transform="translate(-610.000000, -2694.000000)" fill="#000000">
            <g id="Telescope" transform="translate(610.000000, 2694.000000)">
                <path d="M42.13,14.83 L39.23,14.06 C38.0841727,14.0503615 37.0506692,13.3691887 36.59,12.32 L32.72,11.32 L32.54,11.32 C32.4480531,10.0476562 31.5615381,8.97260628 30.33,8.64 L12.93,4.02 L12.75,4.02 C12.6580531,2.74765622 11.7715381,1.67260628 10.54,1.34 L7.64,0.57 C6.8708671,0.365649297 6.05205455,0.475272708 5.36376204,0.874744926 C4.67546953,1.27421714 4.17410286,1.93080129 3.97,2.7 L0.89,14.3 C0.685649297,15.0691329 0.795272708,15.8879455 1.19474493,16.576238 C1.59421714,17.2645305 2.25080129,17.7658971 3.02,17.97 L5.92,18.74 C7.19482761,19.0652758 8.5328387,18.5219622 9.22,17.4 L9.39,17.46 L17.88,19.71 L13.22,38.04 C13.1231729,38.4258912 13.1836179,38.8344421 13.388036,39.1757641 C13.5924542,39.5170862 13.9240981,39.7632158 14.31,39.86 C14.4328792,39.8749678 14.5571208,39.8749678 14.68,39.86 C15.3674643,39.8571757 15.965013,39.3873788 16.13,38.72 L20.69,20.48 L25.45,21.74 L29.21,38.67 C29.3894927,39.479097 30.1909029,39.9894923 30.9999999,39.8099997 C31.809097,39.6305072 32.3194924,38.8290971 32.14,38.02 L28.57,21.95 C29.1298821,21.7299851 29.6106899,21.3467325 29.95,20.85 L30.11,20.91 L33.98,21.91 C34.9044091,21.2333752 36.1376603,21.1553213 37.14,21.71 L40.04,22.48 C40.8091329,22.6843507 41.6279455,22.5747273 42.316238,22.1752551 C43.0045305,21.7757829 43.5058971,21.1191987 43.71,20.35 L44.22,18.42 C44.598505,16.8565312 43.6764927,15.2727877 42.13,14.83 Z M29.72,11.4 L27.72,19.4 C27.4,19.19 10.11,14.6 10.11,14.6 L11.5,9.37 L12.17,6.86 L29.72,11.4 Z M3.8,15 L6.88,3.4 L9.78,4.17 L8.6,8.61 L7.21,13.84 L7.21,13.84 L6.7,15.77 L3.8,15 Z M34.8,19.09 L30.93,18.09 L31.93,14.22 L35.8,15.22 L34.8,19.09 Z M40.86,19.66 L37.96,18.89 L38.47,16.96 L41.37,17.73 L40.86,19.66 Z" id="Shape"></path>
            </g>
        </g>
    </g>
</svg>
