<?xml version="1.0" encoding="UTF-8"?>
<svg width="24px" height="24px" viewBox="0 0 24 24" version="1.1" xmlns="http://www.w3.org/2000/svg" xmlns:xlink="http://www.w3.org/1999/xlink">
    <title>Settings-2</title>
    <g id="Page-1" stroke="none" stroke-width="1" fill="none" fill-rule="evenodd">
        <g id="Settings-2" fill="#000000">
            <path d="M12.1173333,7.68 C9.7609184,7.68 7.85066667,9.59025173 7.85066667,11.9466667 C7.85066667,14.3030816 9.7609184,16.2133333 12.1173333,16.2133333 C14.4737483,16.2133333 16.384,14.3030816 16.384,11.9466667 C16.384,9.59025173 14.4737483,7.68 12.1173333,7.68 Z M12.1173333,14.6133333 C10.644574,14.6133333 9.45066667,13.419426 9.45066667,11.9466667 C9.45066667,10.4739073 10.644574,9.28 12.1173333,9.28 C13.5900927,9.28 14.784,10.4739073 14.784,11.9466667 C14.784,13.419426 13.5900927,14.6133333 12.1173333,14.6133333 L12.1173333,14.6133333 Z" id="Shape"></path>
            <path d="M22.2506667,8.74666667 L20.5973333,8.74666667 C20.5297778,8.56533333 20.4551111,8.38755556 20.3733333,8.21333333 L21.5413333,7.04533333 C22.1652339,6.4206559 22.1652339,5.40867743 21.5413333,4.784 L19.28,2.52266667 C18.6553226,1.89876613 17.6433441,1.89876613 17.0186667,2.52266667 L15.8506667,3.69066667 C15.6764444,3.61244444 15.4986667,3.53777778 15.3173333,3.46666667 L15.3173333,1.81333333 C15.3173333,0.929677734 14.6009889,0.213333333 13.7173333,0.213333333 L10.5173333,0.213333333 C9.63367773,0.213333333 8.91733333,0.929677734 8.91733333,1.81333333 L8.91733333,3.46666667 C8.736,3.53422222 8.55822222,3.60888889 8.384,3.69066667 L7.216,2.52266667 C6.59132257,1.89876613 5.5793441,1.89876613 4.95466667,2.52266667 L2.69333333,4.784 C2.06943279,5.40867743 2.06943279,6.4206559 2.69333333,7.04533333 L3.85066667,8.21333333 C3.77244444,8.38755556 3.69777778,8.56533333 3.62666667,8.74666667 L1.97333333,8.74666667 C1.08967773,8.74666667 0.373333333,9.46301107 0.373333333,10.3466667 L0.373333333,13.5466667 C0.373333333,14.4303223 1.08967773,15.1466667 1.97333333,15.1466667 L3.62666667,15.1466667 C3.69422222,15.328 3.76888889,15.5057778 3.85066667,15.68 L2.68266667,16.848 C2.05876613,17.4726774 2.05876613,18.4846559 2.68266667,19.1093333 L4.944,21.3706667 C5.56867743,21.9945672 6.5806559,21.9945672 7.20533333,21.3706667 L8.37333333,20.2026667 C8.54755556,20.2808889 8.72533333,20.3555556 8.90666667,20.4266667 L8.90666667,22.08 C8.90666667,22.9636556 9.62301107,23.68 10.5066667,23.68 L13.7066667,23.68 C14.5903223,23.68 15.3066667,22.9636556 15.3066667,22.08 L15.3066667,20.4266667 C15.488,20.3591111 15.6657778,20.2844444 15.84,20.2026667 L17.008,21.3706667 C17.6326774,21.9945672 18.6446559,21.9945672 19.2693333,21.3706667 L21.5306667,19.1093333 C22.1545672,18.4846559 22.1545672,17.4726774 21.5306667,16.848 L20.384,15.68 C20.4622222,15.5057778 20.5368889,15.328 20.608,15.1466667 L22.2613333,15.1466667 C23.1449889,15.1466667 23.8613333,14.4303223 23.8613333,13.5466667 L23.8613333,10.3466667 C23.8613428,9.92046568 23.6913084,9.51187454 23.3889393,9.21150782 C23.0865701,8.9111411 22.6768582,8.74382533 22.2506667,8.74666667 Z M22.2506667,13.5466667 L19.408,13.5466667 C19.2185795,14.4072722 18.8772385,15.2272129 18.4,15.968 L20.4106667,17.9786667 L18.1493333,20.24 L16.1173333,18.2293333 C15.3765463,18.7065719 14.5566056,19.0479128 13.696,19.2373333 L13.696,22.08 L10.496,22.08 L10.496,19.2373333 C9.63539443,19.0479128 8.81545373,18.7065719 8.07466667,18.2293333 L6.064,20.24 L3.80266667,17.9786667 L5.81333333,15.968 C5.33609481,15.2272129 4.99475386,14.4072722 4.80533333,13.5466667 L1.984,13.5466667 L1.984,10.3466667 L4.82666667,10.3466667 C5.01608719,9.48606109 5.35742814,8.6661204 5.83466667,7.92533333 L3.824,5.91466667 L6.08533333,3.65333333 L8.096,5.664 C8.83678706,5.18676147 9.65672776,4.84542052 10.5173333,4.656 L10.5173333,1.81333333 L13.7173333,1.81333333 L13.7173333,4.656 C14.5779389,4.84542052 15.3978796,5.18676147 16.1386667,5.664 L18.1493333,3.65333333 L20.4106667,5.91466667 L18.4,7.92533333 C18.8772385,8.6661204 19.2185795,9.48606109 19.408,10.3466667 L22.2506667,10.3466667 L22.2506667,13.5466667 Z" id="Shape"></path>
        </g>
    </g>
</svg>