<?xml version="1.0" encoding="UTF-8"?>
<svg width="40px" height="40px" viewBox="0 0 45 31" version="1.1" xmlns="http://www.w3.org/2000/svg" xmlns:xlink="http://www.w3.org/1999/xlink">
    <!-- Generator: Sketch 59 (86127) - https://sketch.com -->
    <title>Card</title>
    <desc>Created with Sketch.</desc>
    <g id="Page-1" stroke="none" stroke-width="1" fill="none" fill-rule="evenodd">
        <g id="250-icons-48x48px" transform="translate(-433.000000, -1445.000000)" fill="#000000">
            <g id="Card" transform="translate(433.000000, 1445.000000)">
                <path d="M44.72,7.4 C44.72,3.53400675 41.5859932,0.4 37.72,0.4 L7.72,0.4 C3.85400675,0.4 0.72,3.53400675 0.72,7.4 L0.72,23.4 C0.72,27.2659932 3.85400675,30.4 7.72,30.4 L37.72,30.4 C41.5859932,30.4 44.72,27.2659932 44.72,23.4 L44.72,7.4 Z M7.72,3.4 L37.72,3.4 C39.929139,3.4 41.72,5.190861 41.72,7.4 L41.72,10.4 L3.72,10.4 L3.72,7.4 C3.72,5.190861 5.510861,3.4 7.72,3.4 Z M37.72,27.4 L7.72,27.4 C5.510861,27.4 3.72,25.609139 3.72,23.4 L3.72,13.4 L41.72,13.4 L41.72,23.4 C41.72,25.609139 39.929139,27.4 37.72,27.4 Z" id="Shape"></path>
                <circle id="Oval" cx="36.22" cy="6.9" r="1.5"></circle>
                <circle id="Oval" cx="30.22" cy="6.9" r="1.5"></circle>
                <circle id="Oval" cx="24.22" cy="6.9" r="1.5"></circle>
            </g>
        </g>
    </g>
</svg>
