<?xml version="1.0" encoding="UTF-8"?>
<svg width="24px" height="24px" viewBox="0 0 35 43" version="1.1" xmlns="http://www.w3.org/2000/svg" xmlns:xlink="http://www.w3.org/1999/xlink">
    <!-- Generator: Sketch 61 (89581) - https://sketch.com -->
    <title>Saved</title>
    <desc>Treepr saved</desc>
    <g id="Page-1" stroke="none" stroke-width="1" fill="none" fill-rule="evenodd">
        <g id="Bookmark">
            <path d="M31.72,3.4 L31.72,39.4 L17.72,25.4 L3.72,39.4 L3.72,3.4 L31.72,3.4 L31.72,3.4 Z M31.72,0.4 L3.72,0.4 C2.06314575,0.4 0.72,1.74314575 0.72,3.4 L0.72,39.4 C0.721066536,40.6125666 1.45198021,41.705263 2.57230595,42.1691479 C3.69263168,42.6330328 4.98205272,42.3768812 5.84,41.52 L17.72,29.4 L29.6,41.52 C30.4579473,42.3768812 31.7473683,42.6330328 32.8676941,42.1691479 C33.9880198,41.705263 34.7189335,40.6125666 34.72,39.4 L34.72,3.4 C34.72,1.74314575 33.3768542,0.4 31.72,0.4 Z" id="Shape"></path>
        </g>
    </g>
</svg>
