<?xml version="1.0" encoding="UTF-8"?>
<svg width="40px" height="40px" viewBox="0 0 49 45" version="1.1" xmlns="http://www.w3.org/2000/svg" xmlns:xlink="http://www.w3.org/1999/xlink">
    <!-- Generator: Sketch 59 (86127) - https://sketch.com -->
    <title>Currency_exchange</title>
    <desc>Created with Sketch.</desc>
    <g id="Page-1" stroke="none" stroke-width="1" fill="none" fill-rule="evenodd">
        <g id="250-icons-48x48px" transform="translate(-344.000000, -2864.000000)" fill="#000000">
            <g id="Currency_exchange" transform="translate(344.000000, 2864.000000)">
                <path d="M18.89,25.91 C18.4938732,25.8653471 18.0964828,25.9823804 17.7877882,26.2346065 C17.4790936,26.4868326 17.2852,26.8529216 17.25,27.25 C17.01,29.63 18.25,31.25 19.62,32.6 C20.4811684,33.4633477 21.5480329,34.0931419 22.72,34.43 L22.72,35.9 C22.72,36.7284271 23.3915729,37.4 24.22,37.4 C25.0484271,37.4 25.72,36.7284271 25.72,35.9 L25.72,34.65 C27.3284644,34.4413449 28.8227408,33.7065125 29.97,32.56 C31.3190966,31.192619 32.0612597,29.339914 32.0292807,27.419297 C31.9973018,25.4986799 31.1938709,23.6717096 29.8,22.35 C28.7115049,21.23254 27.2700277,20.5259335 25.72,20.35 L25.72,13.01 C26.3561412,13.1100792 26.9461298,13.403328 27.41,13.85 C28.0394428,14.5409199 28.3353555,15.4724971 28.22,16.4 C28.22,17.2284271 28.8915729,17.9 29.72,17.9 L29.72,17.9 C30.5484271,17.9 31.22,17.2284271 31.22,16.4 C31.4496077,13.1128227 28.985258,10.2556057 25.7,10 L25.7,8.9 C25.7,8.07157288 25.0284271,7.4 24.2,7.4 C23.3715729,7.4 22.7,8.07157288 22.7,8.9 L22.7,10 C21.5565406,10.0826463 20.4762129,10.555731 19.64,11.34 C16.9973182,14.1957617 16.9973182,18.6042383 19.64,21.46 C20.4732832,22.2618324 21.5111884,22.8188415 22.64,23.07 L22.64,31.2 C22.2744552,31.0123287 21.9376975,30.7732308 21.64,30.49 C20.42,29.27 20.04,28.49 20.13,27.56 C20.2209074,26.767846 19.6761811,26.0430087 18.89,25.91 L18.89,25.91 Z M27.68,24.46 C28.5243623,25.2179796 29.0206151,26.2892967 29.0527513,27.4235137 C29.0848874,28.5577307 28.65009,29.6554276 27.85,30.46 C27.2653845,31.048222 26.5273913,31.4605281 25.72,31.65 L25.72,23.4 C26.466514,23.5441511 27.1507158,23.9141786 27.68,24.46 L27.68,24.46 Z M21.8,19.34 C21.0565135,18.5401852 20.6546521,17.4817112 20.68,16.39 C20.6442963,15.3080623 21.0358486,14.2555411 21.77,13.46 C22.035441,13.2309658 22.3622969,13.0849238 22.71,13.04 L22.71,19.91 C22.3733998,19.7791576 22.0646255,19.5857494 21.8,19.34 L21.8,19.34 Z" id="Shape"></path>
                <path d="M47.54,15.15 C47.2073001,14.9306942 46.8010119,14.8527811 46.4107859,14.9334528 C46.0205599,15.0141245 45.6784697,15.2467505 45.46,15.58 L43.66,18.33 C41.8113894,10.3676689 35.7916682,4.03322124 27.9337923,1.78158563 C20.0759163,-0.470049973 11.6149658,1.71503263 5.83,7.49 C5.42869364,7.86394116 5.26350164,8.42711108 5.39922892,8.95857782 C5.5349562,9.49004455 5.94995545,9.9050438 6.48142218,10.0407711 C7.01288892,10.1764984 7.57605884,10.0113064 7.95,9.61 C13.0036696,4.54193442 20.4295231,2.65330751 27.29044,4.69112093 C34.151357,6.72893436 39.342256,12.3649595 40.81,19.37 L37.57,17.16 C36.8851669,16.6933194 35.9516806,16.8701669 35.485,17.555 C35.0183194,18.2398331 35.1951669,19.1733194 35.88,19.64 L41.88,23.74 L41.88,23.74 L42.01,23.8 C42.105035,23.8539937 42.2056168,23.8975791 42.31,23.93 L42.31,23.93 C42.4372652,23.9635933 42.5683764,23.9804024 42.7,23.98 L42.7,23.98 C42.809674,23.9919762 42.920326,23.9919762 43.03,23.98 L43.15,23.98 L43.37,23.9 L43.49,23.82 C43.5531915,23.7812665 43.6133631,23.7378092 43.67,23.69 L43.78,23.57 C43.8267554,23.5230715 43.8701933,23.4729508 43.91,23.42 L43.91,23.42 L47.91,17.32 C48.1645319,16.9886151 48.269299,16.5660784 48.1990655,16.1541686 C48.128832,15.7422587 47.8899644,15.3783142 47.54,15.15 L47.54,15.15 Z" id="Shape"></path>
                <path d="M40.66,35.29 C37.1338776,39.1856832 32.1245111,41.4081772 26.87,41.4081772 C21.6154889,41.4081772 16.6061224,39.1856832 13.08,35.29 C10.4086627,32.6190996 8.57382228,29.2274249 7.8,25.53 L11.04,27.74 C11.4830093,28.0418894 12.0534229,28.0845041 12.5363715,27.8517915 C13.0193201,27.6190788 13.3414323,27.1463935 13.3813715,26.6117915 C13.4213107,26.0771894 13.1730093,25.5618894 12.73,25.26 L6.73,21.16 L6.73,21.16 C6.61814489,21.0874846 6.49706433,21.0303077 6.37,20.99 L6.37,20.99 L6.37,20.99 C6.23398628,20.971107 6.09601372,20.971107 5.96,20.99 L5.89,20.99 C5.7536619,20.9984512 5.61910102,21.0253634 5.49,21.07 L5.49,21.07 C5.35725657,21.1219413 5.23265338,21.192662 5.12,21.28 L5.06,21.28 C4.95327681,21.3666072 4.85905004,21.4675645 4.78,21.58 L4.78,21.58 L4.78,21.58 L0.78,27.68 C0.324365432,28.3731173 0.516883093,29.3043648 1.21000028,29.7599996 C1.90311748,30.2156344 2.83436495,30.023117 3.29,29.33 L5.09,26.58 C7.54058647,36.6656024 16.3518308,43.9247968 26.72,44.4 C32.7819812,44.2531589 38.5460255,41.7408108 42.78,37.4 C43.3307177,36.8089805 43.3144678,35.8879806 42.7432436,35.3167564 C42.1720194,34.7455322 41.2510195,34.7292823 40.66,35.28 L40.66,35.29 Z" id="Shape"></path>
            </g>
        </g>
    </g>
</svg>
