<?xml version="1.0" encoding="UTF-8"?>
<svg width="24px" height="24px" viewBox="0 0 24 24" version="1.1" xmlns="http://www.w3.org/2000/svg" xmlns:xlink="http://www.w3.org/1999/xlink">
    <title>Home</title>
    <g id="Page-1" stroke="none" stroke-width="1" fill="none" fill-rule="evenodd">
        <g id="Home" fill="#000000">
            <path d="M23.2106667,9.77714286 L13.152,0.634285714 C12.5550499,0.0920519312 11.6796168,0.0920519312 11.0826667,0.634285714 L1.024,9.77714286 C0.52449378,10.2331331 0.335503537,10.9696844 0.547250923,11.6351762 C0.75899831,12.300668 1.32854647,12.7601558 1.984,12.7942857 L1.984,21.9371429 C1.984,22.8839167 2.7003444,23.6514286 3.584,23.6514286 L20.6506667,23.6514286 C21.5343223,23.6514286 22.2506667,22.8839167 22.2506667,21.9371429 L22.2506667,12.8 C22.9061202,12.7658701 23.4756684,12.3063823 23.6874157,11.6408905 C23.8991631,10.9753987 23.7101729,10.2388474 23.2106667,9.78285714 L23.2106667,9.77714286 Z M11.584,21.9428571 L10.5173333,21.9428571 L10.5173333,16.8 L13.7173333,16.8 L13.7173333,21.9428571 L11.584,21.9428571 Z M20.6506667,11.0857143 L20.6506667,21.9428571 L15.3173333,21.9428571 L15.3173333,16.8 C15.3173333,15.8532261 14.6009889,15.0857143 13.7173333,15.0857143 L10.5173333,15.0857143 C9.63367773,15.0857143 8.91733333,15.8532261 8.91733333,16.8 L8.91733333,21.9428571 L3.584,21.9428571 L3.584,11.0857143 L2.05866667,11.0857143 L12.1173333,1.94285714 L22.176,11.0857143 L20.6506667,11.0857143 Z" id="Shape"></path>
        </g>
    </g>
</svg>